<svg width="71" height="101" viewBox="0 0 71 101" fill="none" xmlns="http://www.w3.org/2000/svg">
<rect x="18" y="16.1428" width="8.46004" height="13.9905" fill="#03FF07"/>
<rect opacity="0.3" x="26.46" y="16.1428" width="8.46004" height="13.9905" fill="#7DFF03"/>
<rect opacity="0.7" x="34.9201" y="16.1428" width="8.46004" height="13.9905" fill="#FF037D"/>
<rect x="43.0799" y="16.1428" width="8.46004" height="13.9905" fill="#FF03FB"/>
<rect x="51.54" y="16.1428" width="8.46004" height="13.9905" fill="#8780E2"/>
<path d="M1 9C1 4.58173 4.58172 1 9 1H69C69.5523 1 70 1.44772 70 2V98.0857C70 98.638 69.5523 99.0857 69 99.0857H9C4.58172 99.0857 1 95.504 1 91.0857V9Z" stroke="black" stroke-width="2"/>
<path d="M1 90.7905C1 86.3722 4.58172 82.7905 9 82.7905H70V97.0857C70 98.1903 69.1046 99.0857 68 99.0857H9C4.58172 99.0857 1 95.504 1 91.0857V90.7905Z" stroke="black" stroke-width="2"/>
<line x1="8" y1="2.15234" x2="8" y2="83.9428" stroke="black" stroke-width="2"/>
<line x1="69" y1="89.8237" x2="36" y2="89.8237" stroke="black"/>
<line x1="69" y1="93.0524" x2="32" y2="93.0524" stroke="black"/>
<rect x="17" y="14.9905" width="44" height="16.2952" stroke="black" stroke-width="2"/>
</svg>
